<svg width="104" height="104" viewBox="0 0 104 104" fill="none" xmlns="http://www.w3.org/2000/svg">
<circle cx="52" cy="52.2275" r="50.5" fill="#343434" stroke="white" stroke-width="2"/>
<g clip-path="url(#clip0_401_327)">
<path d="M68.5006 74.7535C69.7492 74.7535 70.7183 74.7535 71.8738 74.7535C71.8738 68.2234 71.8738 61.7703 71.8738 55.2401C72.5447 55.2401 72.992 55.2401 73.6256 55.2401C73.6256 61.7317 73.6256 68.1463 73.6256 74.6957C74.7252 74.6957 75.6756 74.6957 76.7938 74.6957C76.8497 73.8481 76.9056 72.9813 76.9615 71.9989C77.502 71.9604 77.9679 71.9411 78.5456 71.9218C78.5456 74.426 78.5456 76.8339 78.5456 79.4151C78.0797 79.4344 77.5765 79.4729 76.9802 79.5115C76.9243 78.5098 76.8684 77.6815 76.7938 76.6798C60.3565 76.6798 43.9564 76.6798 27.2955 76.6798C27.2768 74.4453 27.2582 72.4034 27.2582 70.3423C27.2582 68.2619 27.2582 66.1622 27.2582 64.0818C27.2582 62.0014 27.2582 59.9017 27.2582 57.8213C27.2582 55.7409 27.2582 53.6413 27.2582 51.5609C27.2582 49.5383 27.2582 47.4964 27.2582 45.4738C27.2582 43.3934 27.2582 41.2937 27.2582 39.2133C27.2582 37.1329 27.2582 35.0332 27.2582 32.9528C27.2582 30.8724 27.2582 28.792 27.2582 26.596C26.2705 26.4805 25.4318 26.4227 24.5 26.3456C24.5 25.787 24.5 25.3054 24.5 24.7275C26.8668 24.7275 29.1964 24.7275 31.6564 24.7275C31.6937 25.2284 31.7309 25.6907 31.7868 26.3264C30.8364 26.4034 29.9791 26.4612 29.0473 26.5383C29.0473 42.6036 29.0473 58.5919 29.0473 74.715C30.0909 74.715 31.0787 74.715 32.2155 74.715C32.2155 69.6296 32.2155 64.679 32.2155 59.5743C32.7932 59.555 33.2405 59.5165 33.8741 59.4972C33.8741 64.6212 33.8741 69.6103 33.8741 74.7342C35.0109 74.7342 35.9614 74.7342 37.1355 74.7342C37.1355 71.1128 37.1355 67.5299 37.1355 63.8892C37.7505 63.8507 38.1791 63.8314 38.8128 63.7929C38.8128 67.4528 38.8128 71.0165 38.8128 74.7342C39.9682 74.7342 40.9187 74.7342 42.0742 74.7342C42.0742 71.4595 42.0742 68.2234 42.0742 64.8716C42.7264 64.8716 43.1737 64.8716 43.7887 64.8716C43.7887 68.127 43.7887 71.3054 43.7887 74.4838C44.9069 75.1002 45.9133 74.8691 47.0501 74.6765C47.0501 71.4403 47.0501 68.2426 47.0501 64.8716C47.6837 64.8331 48.1683 64.8138 48.8392 64.7753C48.8392 68.1656 48.8392 71.3632 48.8392 74.715C49.9387 74.715 50.8705 74.715 52.0446 74.715C52.0446 71.1513 52.0446 67.5684 52.0446 63.9084C52.7342 63.9084 53.1815 63.9084 53.7965 63.9084C53.7965 67.4914 53.7965 71.0165 53.7965 74.715C54.9333 74.715 55.921 74.715 57.0578 74.715C57.0578 69.6873 57.0578 64.7368 57.0578 59.6513C57.6356 59.5935 58.0828 59.555 58.7351 59.4972C58.7351 64.6404 58.7351 69.6296 58.7351 74.7535C59.9092 74.7535 60.8969 74.7535 62.0151 74.7535C62.0151 68.2619 62.0151 61.9051 62.0151 55.3942C62.5556 55.2979 63.0029 55.2208 63.6738 55.1053C63.6738 61.7125 63.6738 68.1656 63.6738 74.7535C64.7733 74.7535 65.6679 74.7535 66.7115 74.7535C66.7115 68.2619 66.7115 61.8666 66.7115 55.3172C67.3638 55.3172 67.867 55.3172 68.5192 55.3172C68.5006 61.7703 68.5006 68.1656 68.5006 74.7535Z" fill="white"/>
<path d="M58.8095 47.4963C59.8718 47.4963 60.8222 47.4963 61.9218 47.4963C61.9963 46.7643 62.0709 46.0515 62.1454 45.2618C62.4622 45.204 62.7604 45.1076 63.0772 45.1076C65.6491 45.0884 68.2022 45.0691 70.7741 45.1076C72.7123 45.1269 73.5509 45.9937 73.6627 47.9778C73.6814 48.4209 73.7186 48.8832 73.6814 49.3262C73.5509 50.848 72.6377 51.8497 71.1468 51.9075C68.6309 51.9845 66.1336 51.946 63.6177 51.946C63.189 51.946 62.7604 51.946 62.2013 51.946C62.1268 51.0984 62.0522 50.3472 61.959 49.4803C60.934 49.4803 59.9836 49.4803 58.8468 49.4803C58.2504 54.2383 56.0886 58.0524 51.9699 60.4988C49.1558 62.1747 46.0808 62.5792 42.9312 61.9628C36.4458 60.6721 32.0103 54.7391 32.2898 47.7467C32.5508 41.2165 37.6012 35.4376 44.4035 34.8597C48.0563 34.5515 51.299 35.6303 54.1131 38.0767C56.9086 40.5231 58.3249 43.74 58.8095 47.4963ZM45.4472 36.5741C39.1481 36.6127 33.9485 41.9293 33.9112 48.3824C33.8926 55.0473 39.1108 60.441 45.559 60.4217C51.9326 60.3832 57.1322 54.9703 57.0763 48.4401C57.039 41.8522 51.8022 36.5356 45.4472 36.5741ZM63.7854 50.1931C66.1895 50.1931 68.4072 50.2316 70.625 50.1738C71.7432 50.1546 71.9668 49.7693 71.9295 48.3631C71.9109 47.0725 71.7245 46.8413 70.5504 46.8221C68.5936 46.7835 66.6368 46.8028 64.68 46.8221C64.3818 46.8221 64.0836 46.9569 63.7854 47.0339C63.7854 48.0549 63.7854 48.9988 63.7854 50.1931Z" fill="white"/>
<path d="M44.5712 42.3148C44.6458 41.8332 44.7203 41.3516 44.7948 40.8123C45.2794 40.8123 45.708 40.8123 46.2299 40.8123C46.2112 41.8717 46.5839 42.5652 47.553 43.0275C48.5221 43.4898 49.0626 44.4337 49.044 45.6665C48.2239 45.9362 47.6276 45.8977 47.1058 45.0308C46.5653 44.1255 45.6708 43.9329 44.8135 44.2603C44.1053 44.53 43.6021 45.0116 43.6207 45.8784C43.6394 46.7453 44.1053 47.2268 44.8321 47.4772C45.1862 47.5928 45.5776 47.5736 45.9503 47.6506C47.7021 47.9781 48.8017 49.0375 49.0626 50.6556C49.3049 52.1389 48.634 53.3525 47.0126 54.3156C46.8262 54.4312 46.6399 54.5468 46.4162 54.6816C46.3603 55.1632 46.2858 55.6447 46.2112 56.2226C45.7453 56.2419 45.3353 56.2804 44.8135 56.2997C44.7017 55.7218 44.6085 55.2017 44.5153 54.6431C43.2294 53.9689 41.9994 53.2176 41.8876 51.4069C42.7076 51.0794 43.3226 51.0216 43.8817 51.9848C44.4408 52.9287 45.4098 53.0635 46.323 52.659C46.9939 52.3508 47.348 51.8307 47.348 51.0794C47.348 50.3089 46.9194 49.8081 46.2485 49.5769C45.7826 49.4228 45.298 49.365 44.8135 49.2687C43.1921 48.9412 42.0367 47.8432 41.8503 46.3215C41.6639 44.7612 42.3721 43.6054 43.658 42.8156C43.9562 42.6615 44.2544 42.4881 44.5712 42.3148Z" fill="white"/>
</g>
<defs>
<clipPath id="clip0_401_327">
<rect width="54.0643" height="54.7646" fill="white" transform="translate(24.5 24.7275)"/>
</clipPath>
</defs>
</svg>
