<svg width="104" height="104" viewBox="0 0 104 104" fill="none" xmlns="http://www.w3.org/2000/svg">
<circle cx="52" cy="52.2275" r="50.5" fill="#343434" stroke="white" stroke-width="2"/>
<g clip-path="url(#clip0_401_324)">
<path d="M74.9843 43.4887C74.9843 46.1077 74.931 48.7267 74.9843 51.3721C75.1707 57.6683 72.9863 63.1444 68.9904 67.9062C64.6749 73.0913 59.2404 76.7949 53.0868 79.5197C52.2077 79.9165 51.4085 79.943 50.5027 79.5462C43.4966 76.4246 37.3696 72.1654 32.9208 65.8163C29.6708 61.1868 28.3122 56.0281 28.4987 50.3404C28.6852 44.8114 28.6319 39.2295 28.472 33.7006C28.4188 31.7165 29.0048 30.526 30.7897 29.5736C37.8224 25.7642 45.2282 23.4098 53.2999 23.7537C60.5191 24.0711 67.179 26.3462 73.3859 29.9969C74.558 30.6847 75.0376 31.5577 75.0109 32.9069C74.931 36.4254 74.9843 39.9703 74.9843 43.4887ZM71.8408 44.2823C71.8408 40.9755 71.8142 37.6952 71.8408 34.3884C71.8408 33.436 71.7343 32.6688 70.7486 32.1397C65.181 29.1239 59.2937 27.1134 52.9269 26.8753C46.0273 26.6107 39.6872 28.6213 33.6134 31.7165C32.2282 32.4307 31.6688 33.2508 31.6954 34.8381C31.802 40.3142 31.8552 45.7903 31.6954 51.2663C31.5356 57.3244 33.7466 62.3772 37.6892 66.7951C41.179 70.7368 45.4679 73.6204 50.1564 76.0013C51.2486 76.5568 52.2343 76.5833 53.3798 76.0013C58.2548 73.5146 62.7302 70.4723 66.2999 66.2925C69.9228 62.0333 72.054 57.1921 71.8675 51.478C71.7609 49.0706 71.8408 46.6632 71.8408 44.2823Z" fill="white"/>
<path d="M48.0268 56.3988C51.6764 52.8539 54.8731 49.7587 58.0432 46.69C58.8424 45.8964 59.6149 45.0498 60.4674 44.3091C61.4264 43.4626 62.1723 43.4626 62.8649 44.1239C63.5842 44.8118 63.6108 45.526 62.6785 46.4519C58.3895 50.764 54.074 55.0761 49.7318 59.3353C48.7727 60.2876 48.16 60.2876 47.201 59.3617C45.0166 57.2718 42.8855 55.1555 40.8076 53.0126C39.9551 52.1396 39.9818 51.5312 40.6211 50.8698C41.3137 50.1556 42.1662 50.1027 43.0187 50.8698C44.2973 52.0338 45.5227 53.2772 46.6949 54.5206C47.1744 55.0496 47.5473 55.7375 48.0268 56.3988Z" fill="white"/>
</g>
<defs>
<clipPath id="clip0_401_324">
<rect width="46.5122" height="56.11" fill="white" transform="translate(28.5 23.7275)"/>
</clipPath>
</defs>
</svg>
