<svg width="103" height="104" viewBox="0 0 103 104" fill="none" xmlns="http://www.w3.org/2000/svg">
<circle cx="51.5" cy="52.2275" r="50.5" fill="#343434" stroke="white" stroke-width="2"/>
<g clip-path="url(#clip0_401_330)">
<path d="M63.1887 33.6235C53.7723 33.6235 44.4847 33.6235 35.02 33.6235C34.9878 34.0683 34.9395 34.4973 34.9395 34.9262C34.9395 38.1672 34.9395 41.4081 34.9395 44.649C34.9395 45.0144 34.9556 45.3798 34.8912 45.7294C34.7946 46.2218 34.4727 46.5237 33.9254 46.4919C33.4586 46.4602 33.1689 46.1901 33.0884 45.7452C33.0401 45.4434 33.0562 45.1098 33.0401 44.8079C33.0401 40.2166 33.1206 35.6253 33.0079 31.0339C32.9597 27.6182 35.7604 25.6959 38.4646 25.7277C45.6275 25.823 52.7904 25.7595 59.9533 25.7595C62.1747 25.7595 63.8326 26.665 64.7662 28.6827C65.0076 29.191 65.1364 29.8106 65.1525 30.3667C65.2008 31.9871 65.1847 33.6076 65.1847 35.2281C65.1847 35.4028 65.1686 35.5935 65.1525 35.7682C65.1042 36.2448 64.8145 36.4831 64.3477 36.5308C63.8648 36.5785 63.5268 36.3243 63.4302 35.8953C63.3175 35.4187 63.3336 34.9103 63.3014 34.4337C63.2692 34.2113 63.237 33.9889 63.1887 33.6235ZM63.1243 31.6694C63.8004 29.2705 61.9654 27.4435 59.7763 27.6023C59.6475 27.6182 59.5026 27.6023 59.3578 27.6023C52.549 27.6023 45.7563 27.6023 38.9475 27.6023C38.529 27.6023 38.1266 27.5706 37.7242 27.6341C35.6799 27.8883 34.5371 29.6994 35.181 31.6694C44.4847 31.6694 53.7723 31.6694 63.1243 31.6694Z" fill="white"/>
<path d="M47.5433 45.4274C46.2717 46.5712 44.9035 46.9207 43.2938 46.0311C42.7144 46.4282 42.1027 46.8254 41.5071 47.2226C39.6721 48.4776 37.8371 49.7486 35.9861 50.9719C35.2939 51.4326 34.9237 51.8933 34.8915 52.7989C34.8432 54.3399 33.636 55.4202 32.1551 55.4838C30.6099 55.5632 29.4026 54.6577 29.0646 53.1802C28.6139 51.2579 30.3362 49.4309 32.3161 49.7168C32.799 49.7804 33.2819 49.971 33.8613 50.1299C36.0182 48.6683 38.2235 47.159 40.4448 45.6498C40.6701 45.4909 40.8794 45.3161 41.1208 45.189C41.7969 44.8078 42.1671 44.3788 42.1671 43.4891C42.151 42.0275 43.2294 40.9631 44.6781 40.7248C45.998 40.5024 47.3662 41.2332 47.8008 42.5836C48.0745 43.4415 48.5252 43.8069 49.3461 44.0452C50.9235 44.5059 52.4688 45.0461 54.014 45.5862C54.4808 45.7451 54.8511 45.761 55.2696 45.4115C56.0905 44.7124 57.0402 44.49 58.0864 44.8554C58.5854 45.0302 58.9556 44.9349 59.342 44.6012C61.8852 42.4724 64.4123 40.3276 66.9877 38.2465C67.535 37.8016 67.3902 37.325 67.3741 36.8007C67.3097 35.2915 68.2916 34.1 69.7885 33.814C71.2533 33.528 72.6215 34.3224 73.1366 35.7363C73.8931 37.8334 72.1064 39.9146 69.7885 39.4697C68.8388 39.2791 68.2755 39.5651 67.6316 40.1211C65.4908 41.9481 63.3178 43.7433 61.1447 45.5227C60.4848 46.0628 60.0502 46.5553 60.1307 47.5403C60.2594 49.0655 59.181 50.2093 57.684 50.4794C56.3158 50.7336 54.9315 49.971 54.4647 48.573C54.2072 47.7945 53.7887 47.4291 53 47.2067C51.165 46.6983 49.3783 46.0469 47.5433 45.4274ZM58.2474 47.6356C58.2635 47.1273 57.7806 46.5871 57.2494 46.5553C56.7504 46.5236 56.171 47.0161 56.1227 47.5085C56.0744 48.0328 56.6378 48.6365 57.2011 48.6524C57.7162 48.6842 58.2313 48.1758 58.2474 47.6356ZM33.0243 52.6083C33.0243 52.1158 32.477 51.5597 31.978 51.5438C31.4791 51.5279 30.9157 52.0522 30.8996 52.5765C30.8674 53.069 31.3986 53.6091 31.9459 53.625C32.4931 53.625 33.0243 53.1325 33.0243 52.6083ZM46.1429 43.6321C46.159 43.1079 45.6278 42.5836 45.0966 42.5836C44.5493 42.5836 44.0343 43.0761 44.0343 43.6162C44.0182 44.1405 44.5332 44.6489 45.0805 44.6648C45.5956 44.6648 46.1268 44.1564 46.1429 43.6321ZM71.3821 36.626C71.3499 36.1176 70.8026 35.6092 70.2875 35.6092C69.7724 35.6092 69.2412 36.1494 69.2573 36.6736C69.2734 37.1979 69.8046 37.6745 70.3519 37.6745C70.8992 37.6586 71.4143 37.1503 71.3821 36.626Z" fill="white"/>
<path d="M32.9919 71.4343C32.1066 71.4343 31.3822 71.4343 30.6579 71.4343C30.336 71.4343 29.9657 71.4978 29.7243 71.3548C29.4346 71.2118 29.1287 70.8941 29.0483 70.6081C28.9195 70.1792 29.2253 69.8138 29.6599 69.6867C29.9979 69.5914 30.3843 69.5914 30.7384 69.5914C42.9234 69.5914 55.1084 69.5914 67.3094 69.5914C67.5831 69.5914 67.8567 69.5755 68.1304 69.6073C68.8547 69.6867 69.2571 70.0521 69.1927 70.5764C69.1283 71.1801 68.7259 71.4184 68.1465 71.4343C67.6475 71.4501 67.1485 71.4343 66.6334 71.4343C66.231 71.4343 65.8286 71.4343 65.2652 71.4343C65.2169 71.9585 65.1686 72.3875 65.1364 72.8164C64.9755 75.4378 62.9956 77.376 60.3236 77.3919C52.8388 77.4236 45.3539 77.4236 37.8691 77.3919C35.2132 77.376 33.2011 75.4219 33.0402 72.8164C33.0402 72.4192 33.0241 72.0221 32.9919 71.4343ZM63.1405 71.5455C60.7904 71.2754 36.018 71.3707 35.0522 71.6408C34.7464 74.1509 35.9375 75.5331 38.4486 75.549C45.5793 75.5649 52.6939 75.5649 59.8246 75.549C62.3517 75.549 63.5268 74.1033 63.1405 71.5455Z" fill="white"/>
<path d="M69.2247 55.0548C69.2247 58.5658 69.2247 62.0768 69.2247 65.5879C69.2247 65.9056 69.2247 66.2233 69.2086 66.5252C69.1764 67.0653 68.8706 67.3513 68.3394 67.3831C67.8082 67.4307 67.438 67.0971 67.3575 66.4934C67.3253 66.2233 67.3414 65.9533 67.3414 65.6832C67.3414 58.6135 67.3414 51.5597 67.3414 44.49C67.3414 44.1723 67.3253 43.8545 67.3575 43.5527C67.438 43.0443 67.7599 42.7424 68.2911 42.7424C68.8384 42.7424 69.1281 43.0761 69.1925 43.5844C69.2408 43.934 69.2247 44.2994 69.2247 44.6648C69.2247 48.1281 69.2247 51.5915 69.2247 55.0548Z" fill="white"/>
<path d="M65.1685 56.5483C65.1685 59.5192 65.1685 62.4741 65.1685 65.445C65.1685 65.8104 65.1686 66.1599 65.1525 66.5253C65.1203 67.0496 64.8627 67.3673 64.3154 67.3991C63.7843 67.4309 63.3979 67.0972 63.3014 66.5094C63.2692 66.2393 63.2853 65.9693 63.2853 65.6992C63.2853 59.6304 63.2853 53.5616 63.2853 47.4927C63.2853 47.1432 63.3014 46.7778 63.3819 46.4283C63.5106 45.9358 63.8486 45.6657 64.3959 45.7452C64.8788 45.8087 65.1203 46.1106 65.1364 46.5713C65.1685 46.9367 65.1685 47.2862 65.1685 47.6516C65.1685 50.6225 65.1685 53.5774 65.1685 56.5483Z" fill="white"/>
<path d="M47.1406 57.5016C47.1406 54.8485 47.1406 52.1954 47.1406 49.5422C47.1406 49.1451 47.1567 48.732 47.2533 48.3507C47.366 47.9218 47.7201 47.6676 48.1869 47.7311C48.6215 47.7947 48.9434 48.033 48.9756 48.5255C48.9917 48.7955 49.0078 49.0656 49.0078 49.3357C49.0078 54.8326 49.0078 60.3136 49.0078 65.8105C49.0078 66.0806 49.0078 66.3506 48.9756 66.6207C48.9273 67.0814 48.6698 67.3674 48.203 67.4151C47.6718 67.4627 47.3177 67.1926 47.205 66.6843C47.1245 66.2871 47.1245 65.874 47.1245 65.4768C47.1245 62.8078 47.1406 60.1547 47.1406 57.5016Z" fill="white"/>
<path d="M43.1647 57.9464C43.1647 55.468 43.1647 52.9896 43.1647 50.5113C43.1647 50.1935 43.1486 49.8758 43.1808 49.5739C43.2291 49.0656 43.5188 48.7319 44.0661 48.7319C44.5973 48.7319 44.9031 49.0497 45.0158 49.5422C45.0801 49.7964 45.048 50.0823 45.048 50.3524C45.048 55.4839 45.048 60.6313 45.048 65.7627C45.048 66.0805 45.064 66.3982 44.9836 66.7001C44.8548 67.1767 44.5007 67.4468 43.9695 67.3991C43.4866 67.3514 43.2291 67.0655 43.1969 66.6048C43.1647 66.2394 43.1647 65.8898 43.1647 65.5244C43.1647 62.9984 43.1647 60.4724 43.1647 57.9464Z" fill="white"/>
<path d="M53.0643 58.6137C53.0643 60.9491 53.0643 63.3004 53.0643 65.6357C53.0643 65.9058 53.0803 66.1759 53.0482 66.446C52.9838 67.0814 52.6296 67.4468 52.1307 67.3992C51.5512 67.3356 51.2293 67.002 51.1971 66.4301C51.181 66.16 51.181 65.8899 51.181 65.6198C51.181 60.9332 51.181 56.2465 51.181 51.5599C51.181 51.1627 51.1649 50.7338 51.2775 50.3525C51.3902 49.9235 51.7604 49.7011 52.2272 49.7488C52.6779 49.7964 52.9999 50.0189 53.0482 50.5114C53.0803 50.8291 53.0643 51.1468 53.0643 51.4487C53.0643 53.8476 53.0643 56.2307 53.0643 58.6137Z" fill="white"/>
<path d="M39.1087 59.6781C39.1087 57.6604 39.1087 55.6269 39.1087 53.6092C39.1087 53.3392 39.0926 53.0691 39.1087 52.799C39.157 52.1159 39.5433 51.7028 40.0745 51.7187C40.5896 51.7346 40.9437 52.1477 40.9759 52.8626C41.0081 54.0382 40.992 55.1979 40.992 56.3736C40.992 59.3921 40.992 62.4106 40.992 65.4132C40.992 65.731 41.0081 66.0487 40.992 66.3506C40.9437 67.0655 40.5896 67.4309 40.0262 67.415C39.4789 67.3991 39.1409 67.0337 39.1248 66.287C39.0926 64.0787 39.1087 61.8863 39.1087 59.6781Z" fill="white"/>
<path d="M59.3097 59.5509C59.3097 57.5174 59.3097 55.4997 59.3097 53.4662C59.3097 53.1961 59.2936 52.9261 59.3258 52.656C59.4063 52.0046 59.7121 51.671 60.2433 51.7028C60.8549 51.7345 61.1286 52.1158 61.193 52.656C61.2252 52.9737 61.2091 53.2915 61.2091 53.5933C61.2091 57.5968 61.2091 61.6003 61.2091 65.6197C61.2091 65.9851 61.2252 66.3505 61.1286 66.6841C60.9998 67.1608 60.6457 67.4467 60.0984 67.3673C59.6316 67.3037 59.3741 67.0178 59.3258 66.5571C59.2936 66.2393 59.3097 65.9216 59.3097 65.6197C59.3097 63.6021 59.3097 61.5844 59.3097 59.5509Z" fill="white"/>
<path d="M57.1365 60.1069C57.1365 61.8704 57.1365 63.6179 57.1365 65.3814C57.1365 65.6515 57.1526 65.9215 57.1365 66.1916C57.0883 67.0177 56.7824 67.399 56.1708 67.399C55.5752 67.399 55.2694 67.0336 55.2694 66.1598C55.2533 62.1087 55.2694 58.0416 55.2694 53.9904C55.2694 53.8157 55.2694 53.6251 55.3016 53.4503C55.382 52.9896 55.6879 52.7354 56.1547 52.7195C56.6697 52.7036 57.04 52.9419 57.1204 53.4662C57.1687 53.768 57.1526 54.1017 57.1526 54.4035C57.1365 56.3258 57.1365 58.2164 57.1365 60.1069Z" fill="white"/>
<path d="M36.9195 61.6162C36.9195 63.0142 36.9195 64.4123 36.9195 65.7944C36.9195 66.1122 36.9356 66.4299 36.8712 66.7318C36.7747 67.2084 36.4044 67.4467 35.9698 67.3673C35.664 67.3037 35.326 67.0654 35.1489 66.7953C35.0041 66.557 35.0363 66.1916 35.0363 65.8739C35.0363 62.9983 35.0363 60.1069 35.0363 57.2314C35.0363 57.009 35.0202 56.7707 35.0523 56.5641C35.165 55.9763 35.5513 55.6586 36.0825 55.7221C36.6298 55.7857 36.8873 56.1034 36.9034 56.6277C36.9195 57.4856 36.9034 58.3435 36.9195 59.1855C36.9195 59.9957 36.9195 60.8059 36.9195 61.6162Z" fill="white"/>
<path d="M30.9798 62.5059C30.9798 61.4256 30.9637 60.3453 30.9798 59.2809C30.9798 58.9314 31.0281 58.566 31.1408 58.2323C31.2856 57.8034 31.6881 57.5651 32.1066 57.7081C32.3963 57.8193 32.7182 58.1211 32.7987 58.4071C32.9275 58.8678 32.9114 59.3762 32.9114 59.8687C32.9114 61.8387 32.8953 63.8087 32.8792 65.7945C32.8792 65.8898 32.8792 65.9693 32.8792 66.0646C32.847 67.0337 32.5573 67.4309 31.9295 67.3991C31.3178 67.3673 31.012 66.9543 30.9959 66.0011C30.9637 64.8413 30.9798 63.6816 30.9798 62.5059Z" fill="white"/>
</g>
<defs>
<clipPath id="clip0_401_330">
<rect width="44.2974" height="51.6802" fill="white" transform="translate(29 25.7275)"/>
</clipPath>
</defs>
</svg>
