<svg width="104" height="104" viewBox="0 0 104 104" fill="none" xmlns="http://www.w3.org/2000/svg">
<circle cx="52" cy="52.2275" r="50.5" fill="#343434" stroke="white" stroke-width="2"/>
<g clip-path="url(#clip0_401_333)">
<path d="M28.3152 62.921C27.7463 63.4891 27.1104 64.1073 26.4578 64.7254C26.2235 64.9426 25.9726 65.2099 25.6881 65.3269C25.2698 65.494 24.7845 65.4439 24.5837 64.9928C24.4498 64.692 24.5 64.291 24.567 63.9569C24.6172 63.7564 24.8514 63.5893 25.0188 63.4222C25.7885 62.6537 26.5582 61.8684 27.3279 61.1166C28.3319 60.1476 28.5327 60.1476 29.5535 61.0498C29.771 61.2336 29.9718 61.4173 30.2897 61.7014C30.5575 61.4006 30.8085 61.1667 31.0093 60.8827C32.2977 59.1117 33.7368 57.4911 35.5607 56.238C38.0874 54.5004 40.8652 53.8488 43.9273 54.1496C46.27 54.3835 48.5123 54.7845 50.6039 55.954C51.0557 56.2046 51.7083 56.2046 52.2605 56.2213C55.306 56.238 58.3347 56.2714 61.3801 56.2046C63.1204 56.1712 64.5594 56.6223 65.6471 58.1594C66.032 57.9923 66.4336 57.8586 66.785 57.6581C68.6758 56.6724 70.55 55.6365 72.4408 54.6675C74.2313 53.7486 76.0552 53.9324 77.3604 55.1019C79.4855 57.0233 79.2513 60.1476 76.7915 61.7849C75.0177 62.9711 73.1938 64.0738 71.3866 65.2099C68.3746 67.0979 65.3292 68.9357 62.3507 70.8738C60.2925 72.2104 58.1171 72.862 55.6406 72.7952C52.3609 72.6949 49.0979 72.7785 45.8182 72.7618C44.6803 72.7618 43.6763 73.0458 42.7058 73.7475C42.7727 73.9981 42.8062 74.2153 42.9066 74.4158C43.1743 74.9671 43.0405 75.4182 42.6389 75.8359C41.7018 76.7716 40.7648 77.7072 39.811 78.6428C39.6771 78.7765 39.5265 78.9268 39.3592 78.977C38.9408 79.0939 38.4388 79.1273 38.238 78.6595C38.1042 78.3588 38.1042 77.9244 38.2213 77.6236C38.3552 77.2895 38.6898 77.0389 38.9576 76.7716C39.5098 76.2035 40.0787 75.6354 40.5807 75.1175C36.4978 71.0409 32.4651 67.0478 28.3152 62.921ZM41.066 72.3775C43.3751 70.974 43.9273 70.8237 46.6381 70.8237C49.8676 70.8237 53.0972 70.807 56.31 70.8237C57.7657 70.8237 59.1379 70.4895 60.3761 69.721C65.4463 66.5633 70.4998 63.3888 75.5532 60.2144C76.758 59.4459 77.1261 58.2429 76.5405 57.1736C75.9548 56.1043 74.6831 55.7201 73.4615 56.3383C71.2193 57.4744 69.0105 58.6773 66.8184 59.8802C66.534 60.0306 66.2662 60.3982 66.1658 60.7156C65.4128 63.3387 64.0742 64.4247 61.3969 64.4414C57.3641 64.4581 53.3314 64.4414 49.2987 64.4414C48.9306 64.4414 48.529 64.4247 48.1776 64.3244C47.7258 64.2075 47.4581 63.8566 47.4915 63.3721C47.525 62.8876 47.8095 62.5869 48.3115 62.52C48.6796 62.4699 49.0644 62.4866 49.4493 62.4866C53.298 62.4866 57.1299 62.5033 60.9785 62.4699C61.5809 62.4699 62.2168 62.4031 62.7857 62.2193C63.7897 61.9019 64.2917 61.0164 64.1913 60.0139C64.0742 59.0282 63.3547 58.293 62.3339 58.1761C61.9658 58.126 61.5809 58.1427 61.1961 58.1427C58.1673 58.1427 55.1219 58.1761 52.0932 58.126C51.3067 58.1092 50.4198 58.0424 49.7505 57.6749C48.0437 56.7559 46.2198 56.4218 44.3289 56.0876C39.3424 55.2188 34.4396 58.3599 32.0467 63.205C35.042 66.2792 38.0205 69.3033 41.066 72.3775Z" fill="white"/>
<path d="M43.2414 36.9407C42.7394 36.4228 42.2206 35.9383 41.7521 35.4203C40.7147 34.3009 40.7147 33.2985 41.7688 32.1791C42.6557 31.2434 43.5426 30.3412 44.4796 29.4557C45.5004 28.5034 46.4542 28.4867 47.5084 29.3889C48.0773 29.8901 48.596 30.4415 49.1315 30.9761C50.6375 30.3579 52.0765 29.7565 53.6495 29.1049C53.6495 28.4533 53.616 27.7516 53.6495 27.0666C53.7164 25.4626 54.4359 24.7609 56.0591 24.7442C57.2973 24.7275 58.5356 24.7275 59.7571 24.7442C61.2129 24.7776 61.9324 25.4626 62.0328 26.9162C62.083 27.6179 62.0328 28.3363 62.0328 29.0882C63.5556 29.7231 65.0281 30.3245 66.5843 30.9761C67.0695 30.5083 67.5548 29.9904 68.0735 29.5226C69.2449 28.4366 70.1485 28.4366 71.2863 29.5393C72.2066 30.4248 73.1102 31.327 73.9971 32.2626C75.0178 33.3319 75.0178 34.2842 74.0138 35.3702C73.5453 35.8881 73.0266 36.3894 72.5246 36.9073C73.1437 38.3943 73.7294 39.8311 74.382 41.4183C75.0011 41.435 75.6872 41.4685 76.39 41.4852C78.1135 41.5353 78.7661 42.2036 78.7995 43.9412C78.8163 45.1274 78.833 46.3136 78.7995 47.4999C78.7661 49.0537 78.08 49.7387 76.5238 49.7888C75.8712 49.8055 75.2019 49.7888 74.4322 49.7888C74.2481 50.2399 74.064 50.6576 73.8967 51.0753C73.6792 51.6266 73.311 51.9608 72.6919 51.7937C72.0728 51.6266 71.9389 51.1254 72.0393 50.5574C72.4576 48.4021 73.0935 47.8006 74.9844 47.8507C75.5366 47.8674 76.1055 47.8507 76.7581 47.8507C76.7581 46.3471 76.7581 44.9937 76.7581 43.4901C76.0386 43.4734 75.3525 43.4399 74.6497 43.4399C73.2608 43.4232 72.7923 43.0557 72.3238 41.8193C71.8552 40.583 71.3365 39.3633 70.7843 38.1604C70.2823 37.041 70.3493 36.3894 71.1859 35.437C71.4369 35.153 71.7047 34.8857 71.9724 34.6184C72.1899 34.3845 72.4074 34.1506 72.7254 33.7997C72.2066 33.2651 71.7214 32.7638 71.2194 32.2626C70.7509 31.7948 70.2823 31.3437 69.7134 30.7756C69.1947 31.2769 68.7261 31.7113 68.2576 32.1624C67.2034 33.1481 66.4504 33.2316 65.1787 32.6302C64.0576 32.1122 62.9197 31.6444 61.7651 31.21C60.4599 30.7255 60.1252 30.3078 60.1085 28.9211C60.0918 28.2695 60.1085 27.6012 60.1085 26.7992C58.636 26.5653 57.2304 26.7324 55.6575 26.699C55.624 27.4675 55.6073 28.1526 55.5905 28.8376C55.5571 30.4248 55.2893 30.7255 53.7499 31.2769C52.6789 31.6611 51.6247 32.1122 50.604 32.5968C49.2821 33.2316 48.4622 33.1648 47.408 32.1289C46.9729 31.6946 46.6048 31.1933 46.153 30.6754C45.0653 31.8115 44.1282 32.7972 43.074 33.8999C43.4254 34.2675 43.8438 34.752 44.2956 35.2031C45.4 36.3392 45.4669 36.9741 44.7976 38.3776C44.2956 39.4468 43.8605 40.5495 43.4422 41.6522C42.9067 43.0724 42.4716 43.4232 40.9322 43.4399C40.3298 43.4399 39.7274 43.4399 38.9911 43.4399C38.9744 44.2753 38.9409 44.977 38.9242 45.6788C38.9075 46.3303 38.9242 46.9819 38.9242 47.8006C39.6939 47.8173 40.3298 47.8507 40.9824 47.8674C42.7059 47.9176 43.9442 49.2375 43.7434 50.9249C43.7099 51.2591 43.2916 51.7102 42.9736 51.777C42.6724 51.8438 42.1704 51.5598 41.9529 51.2758C41.6684 50.9249 41.5848 50.4237 41.3672 49.8556C40.6812 49.8389 39.9951 49.7721 39.2923 49.7888C37.6859 49.8222 36.866 48.9033 36.9497 47.4498C37.0333 46.18 36.9497 44.8935 36.9831 43.607C37.0166 42.2537 37.619 41.6355 38.9577 41.5019C39.7441 41.435 40.7314 41.6355 41.2836 41.2346C41.8358 40.8336 41.9194 39.8311 42.2374 39.096C42.5553 38.3943 42.89 37.7093 43.2414 36.9407Z" fill="white"/>
<path d="M49.5665 45.6118C49.5665 41.0006 53.2646 37.2581 57.8829 37.2915C62.7523 37.3249 66.2328 41.2846 66.1826 45.6285C66.1324 50.2899 62.5181 53.9322 57.8829 53.9322C53.1307 53.9489 49.4326 49.9224 49.5665 45.6118ZM64.1914 45.7455C64.2751 42.287 61.5141 39.2964 58.0168 39.263C54.369 39.2296 51.6414 42.003 51.5243 45.4448C51.4072 48.97 54.2853 52.0108 57.7825 51.9941C61.4973 51.9607 64.2081 49.0703 64.1914 45.7455Z" fill="white"/>
</g>
<defs>
<clipPath id="clip0_401_333">
<rect width="54.3162" height="54.3162" fill="white" transform="translate(24.5 24.7275)"/>
</clipPath>
</defs>
</svg>
